<svg width="40" height="40" viewBox="0 0 40 40" fill="none" xmlns="http://www.w3.org/2000/svg">
<path d="M0 18.7043V14.0927L12.5754 4.22459H0V0H18.7043V4.61158L6.12892 14.4797H18.7043V18.7043H0Z" fill="white"/>
<path d="M24.9157 40C23.9189 40 23.0619 39.6189 22.3449 38.8569C21.6453 38.0949 21.2955 37.229 21.2955 36.2591V24.9586C21.2955 23.9541 21.6453 23.0968 22.3449 22.3867C23.0619 21.6593 23.9189 21.2957 24.9157 21.2957H36.3797C37.3765 21.2957 38.2247 21.6593 38.9243 22.3867C39.6413 23.0968 39.9998 23.9541 39.9998 24.9586V36.2591C39.9998 37.229 39.6413 38.0949 38.9243 38.8569C38.2247 39.6189 37.3765 40 36.3797 40H24.9157ZM26.3061 36.415H35.6451C36.1348 36.415 36.4059 36.389 36.4584 36.337C36.5283 36.2678 36.5633 35.9907 36.5633 35.5057V27.9461L26.3061 36.415ZM24.7321 33.2456L34.9893 24.7767H25.6503C25.1606 24.7767 24.8807 24.8114 24.8108 24.8806C24.7583 24.9326 24.7321 25.201 24.7321 25.686V33.2456Z" fill="white"/>
<rect x="21.2957" width="18.7043" height="4.19234" fill="white"/>
<rect x="21.2957" y="14.512" width="18.7043" height="4.19234" fill="white"/>
<rect x="21.2957" y="7.2561" width="18.7043" height="4.19234" fill="white"/>
<path d="M0 39.9998H4.15275C4.15275 36.5886 4.18241 28.4256 4.18241 26.3848C4.18241 25.8213 4.44938 25.4653 5.19094 25.4653H18.7041V21.2957H0V39.9998Z" fill="white"/>
</svg>
