<svg width="104" height="40" viewBox="0 0 104 40" fill="none" xmlns="http://www.w3.org/2000/svg">
<path d="M0 23.5333V17.7311L15.8417 5.31527H0V0H23.5625V5.80217L7.72082 18.218H23.5625V23.5333H0Z" fill="white"/>
<path d="M84.998 23.5333C83.7422 23.5333 82.6627 23.0539 81.7594 22.0951C80.8781 21.1364 80.4375 20.0469 80.4375 18.8266V4.6086C80.4375 3.34477 80.8781 2.26617 81.7594 1.37277C82.6627 0.457592 83.7422 0 84.998 0H99.4395C100.695 0 101.764 0.457592 102.645 1.37277C103.548 2.26617 104 3.34477 104 4.6086V18.8266C104 20.0469 103.548 21.1364 102.645 22.0951C101.764 23.0539 100.695 23.5333 99.4395 23.5333H84.998ZM86.7495 19.0227H98.5142C99.1311 19.0227 99.4726 18.99 99.5387 18.9247C99.6268 18.8375 99.6708 18.4889 99.6708 17.8787V8.36738L86.7495 19.0227ZM84.7667 15.0351L97.688 4.3798H85.9233C85.3064 4.3798 84.9539 4.42338 84.8658 4.51054C84.7997 4.57591 84.7667 4.91366 84.7667 5.52378V15.0351Z" fill="white"/>
<path d="M26.8125 0H50.375V5.2747H26.8125V0Z" fill="white"/>
<path d="M26.8125 18.2585H50.375V23.5332H26.8125V18.2585Z" fill="white"/>
<path d="M26.8125 9.12927H50.375V14.404H26.8125V9.12927Z" fill="white"/>
<path d="M53.625 0H77.1875V5.2747H53.625V0Z" fill="white"/>
<path d="M58.9062 0L58.9062 23.5333L53.625 23.5333L53.625 -2.30564e-07L58.9062 0Z" fill="white"/>
<path fill-rule="evenodd" clip-rule="evenodd" d="M57.3824 1.62305C56.2047 1.62305 55.25 2.57655 55.25 3.75275V18.5634C55.25 19.7396 56.2047 20.6931 57.3824 20.6931H58.9062V6.76556C58.9062 5.94222 59.5745 5.27477 60.3989 5.27477H73.5312V3.75275C73.5312 2.57655 72.5766 1.62305 71.3989 1.62305H57.3824Z" fill="white"/>
<path d="M13.5652 40V27.7419H22.8318C23.4496 27.7419 23.9768 27.9746 24.4136 28.44C24.8503 28.9053 25.0686 29.4615 25.0686 30.1084V37.6335C25.0686 38.2805 24.8503 38.8366 24.4136 39.302C23.9768 39.7673 23.4496 40 22.8318 40H13.5652ZM16.2334 37.7357H22.3845C22.6721 37.7357 22.8372 37.7186 22.8798 37.6846C22.9224 37.6392 22.9437 37.4576 22.9437 37.1398V30.6022C22.9437 30.2844 22.9224 30.1084 22.8798 30.0744C22.8372 30.029 22.6721 30.0063 22.3845 30.0063H16.2334C15.9351 30.0063 15.7647 30.029 15.7221 30.0744C15.6902 30.1084 15.6742 30.2844 15.6742 30.6022V37.1398C15.6742 37.4576 15.6902 37.6392 15.7221 37.6846C15.7647 37.7186 15.9351 37.7357 16.2334 37.7357Z" fill="white"/>
<path d="M26.7939 40V27.7419H28.8868V40H26.7939Z" fill="white"/>
<path d="M36.6016 40L29.9392 27.7419H32.3996L37.5442 37.276L42.7047 27.7419H45.1492L38.4868 40H36.6016Z" fill="white"/>
<path d="M46.2345 40V27.7419H48.3275V40H46.2345Z" fill="white"/>
<path d="M49.7473 40V27.7419H59.0139C59.6317 27.7419 60.1589 27.9746 60.5956 28.44C61.0323 28.9053 61.2507 29.4615 61.2507 30.1084V37.6335C61.2507 38.2805 61.0323 38.8366 60.5956 39.302C60.1589 39.7673 59.6317 40 59.0139 40H49.7473ZM52.4154 37.7357H58.5665C58.8541 37.7357 59.0192 37.7186 59.0618 37.6846C59.1044 37.6392 59.1257 37.4576 59.1257 37.1398V30.6022C59.1257 30.2844 59.1044 30.1084 59.0618 30.0744C59.0192 30.029 58.8541 30.0063 58.5665 30.0063H52.4154C52.1172 30.0063 51.9468 30.029 51.9042 30.0744C51.8722 30.1084 51.8562 30.2844 51.8562 30.6022V37.1398C51.8562 37.4576 51.8722 37.6392 51.9042 37.6846C51.9468 37.7186 52.1172 37.7357 52.4154 37.7357Z" fill="white"/>
<path d="M63.0718 40V30.1084C63.0718 29.4615 63.2901 28.9053 63.7268 28.44C64.1635 27.9746 64.6854 27.7419 65.2926 27.7419H72.3384C72.9562 27.7419 73.4834 27.9746 73.9201 28.44C74.3568 28.9053 74.5751 29.4615 74.5751 30.1084V40H72.4502V35.8799H65.1807V40H63.0718ZM65.1807 33.6326H72.4502V30.6022C72.4502 30.2844 72.4289 30.1084 72.3863 30.0744C72.3437 30.029 72.1786 30.0063 71.891 30.0063H65.7399C65.4417 30.0063 65.2713 30.029 65.2287 30.0744C65.1967 30.1084 65.1807 30.2844 65.1807 30.6022V33.6326Z" fill="white"/>
<path d="M78.5684 40C77.9613 40 77.4393 39.7673 77.0026 39.302C76.5659 38.8366 76.3476 38.2805 76.3476 37.6335V36.6971H78.4565V37.1398C78.4565 37.4576 78.4725 37.6392 78.5045 37.6846C78.5471 37.7186 78.7175 37.7357 79.0157 37.7357H85.1668C85.4651 37.7357 85.6302 37.7186 85.6621 37.6846C85.7047 37.6392 85.726 37.4576 85.726 37.1398V35.5905C85.726 35.2727 85.7047 35.0968 85.6621 35.0627C85.6302 35.0173 85.4651 34.9946 85.1668 34.9946H78.5684C77.9613 34.9946 77.4393 34.762 77.0026 34.2966C76.5659 33.8313 76.3476 33.2751 76.3476 32.6281V30.1084C76.3476 29.4615 76.5659 28.9053 77.0026 28.44C77.4393 27.9746 77.9613 27.7419 78.5684 27.7419H85.6302C86.2373 27.7419 86.7592 27.9746 87.1959 28.44C87.6326 28.9053 87.851 29.4615 87.851 30.1084V31.0448H85.726V30.6022C85.726 30.2844 85.7047 30.1084 85.6621 30.0744C85.6302 30.029 85.4651 30.0063 85.1668 30.0063H79.0157C78.7175 30.0063 78.5471 30.029 78.5045 30.0744C78.4725 30.1084 78.4565 30.2844 78.4565 30.6022V32.1514C78.4565 32.4692 78.4725 32.6452 78.5045 32.6792C78.5471 32.7133 78.7175 32.7303 79.0157 32.7303H85.6302C86.2373 32.7303 86.7592 32.9686 87.1959 33.4453C87.6326 33.9107 87.851 34.4669 87.851 35.1138V37.6335C87.851 38.2805 87.6326 38.8366 87.1959 39.302C86.7592 39.7673 86.2373 40 85.6302 40H78.5684Z" fill="white"/>
</svg>
